<svg data-v-423bf9ae="" xmlns="http://www.w3.org/2000/svg" viewBox="0 0 301.0227127102294 60" class="font"><!----><!----><!----><g data-v-423bf9ae="" id="f4cf6bd3-f684-49cc-bcb6-9e53b5f8699a" fill="white" transform="matrix(5.681817956043021,0,0,5.681817956043021,-2.7840906155834944,-16.53409097817812)"><path d="M0.49 13.30L4.62 13.30L4.62 12.89C3.18 12.81 3.14 12.78 3.14 12.00L3.14 9.32L3.93 9.32C4.58 9.32 5.21 9.27 5.73 9.14C6.80 8.86 8.04 8.11 8.04 6.36C8.04 5.29 7.57 4.56 6.94 4.17C6.27 3.75 5.38 3.61 4.40 3.61L0.49 3.61L0.49 4.02C1.72 4.10 1.75 4.13 1.75 4.91L1.75 12.00C1.75 12.78 1.72 12.81 0.49 12.89ZM3.14 8.29L3.14 4.62C3.14 4.23 3.29 4.10 4.20 4.10C5.64 4.10 6.52 4.93 6.52 6.45C6.52 8.20 5.38 8.83 4.17 8.83C3.35 8.83 3.14 8.81 3.14 8.29ZM8.60 13.30L12.01 13.30L12.01 12.89C11.02 12.82 10.96 12.80 10.96 12.08L10.96 3.00L10.86 2.91L8.67 3.26L8.67 3.61L9.20 3.67C9.56 3.71 9.65 3.78 9.65 4.31L9.65 12.08C9.65 12.80 9.60 12.82 8.60 12.89ZM12.91 9.93C12.91 12.14 13.86 13.47 16.14 13.47C17.70 13.47 18.49 12.60 18.87 11.49L18.45 11.27C18.06 12.08 17.53 12.75 16.42 12.75C14.69 12.75 14.34 11.07 14.36 9.62L18.40 9.62C18.69 9.62 18.96 9.55 18.96 9.09C18.96 8.26 18.69 6.27 16.13 6.27C13.94 6.27 12.91 7.83 12.91 9.93ZM14.38 9.09C14.38 8.51 14.59 6.76 16.04 6.76C17.35 6.76 17.50 8.09 17.50 8.64C17.50 8.90 17.42 9.09 17.02 9.09ZM19.85 7.00L20.86 7.00L20.86 11.87C20.86 13.30 21.92 13.47 22.41 13.47C23.13 13.47 23.80 13.10 24.21 12.85L24.09 12.56C23.76 12.70 23.45 12.74 23.10 12.74C22.62 12.74 22.18 12.40 22.18 11.34L22.18 7.00L23.98 7.00L23.98 6.44L22.18 6.44L22.18 4.68L21.77 4.68L20.92 6.44L19.85 6.44ZM24.53 13.30L27.93 13.30L27.93 12.89C26.96 12.82 26.88 12.77 26.88 12.08L26.88 8.81C26.88 8.46 26.89 8.26 27.01 8.05C27.30 7.49 27.94 7.03 28.69 7.03C29.64 7.03 30.16 7.56 30.16 8.78L30.16 12.08C30.16 12.77 30.09 12.82 29.11 12.89L29.11 13.30L32.52 13.30L32.52 12.89C31.56 12.82 31.47 12.77 31.47 12.08L31.47 8.50C31.47 7.08 30.70 6.27 29.40 6.27C28.38 6.27 27.75 6.75 26.87 7.34L26.87 3.00L26.77 2.91L24.58 3.26L24.58 3.61L25.12 3.68C25.48 3.74 25.56 3.81 25.56 4.31L25.56 12.08C25.56 12.77 25.51 12.82 24.53 12.89ZM33.42 9.87C33.42 12.14 34.52 13.47 36.78 13.47C39.03 13.47 40.14 12.14 40.14 9.87C40.14 7.60 39.03 6.27 36.78 6.27C34.52 6.27 33.42 7.60 33.42 9.87ZM34.87 9.87C34.87 7.94 35.49 6.76 36.78 6.76C38.07 6.76 38.68 7.94 38.68 9.87C38.68 11.80 38.07 12.98 36.78 12.98C35.49 12.98 34.87 11.80 34.87 9.87ZM41.26 13.30L44.95 13.30L44.95 12.89C43.71 12.82 43.62 12.80 43.62 12.08L43.62 8.81C43.62 7.73 44.10 7.36 44.42 7.36C44.65 7.36 44.88 7.45 45.29 7.67C45.39 7.73 45.50 7.74 45.57 7.74C45.91 7.74 46.21 7.39 46.21 6.96C46.21 6.65 46.02 6.27 45.47 6.27C44.97 6.27 44.55 6.58 43.62 7.39L43.46 6.27L41.33 6.62L41.33 6.97L41.86 7.04C42.22 7.10 42.31 7.17 42.31 7.67L42.31 12.08C42.31 12.80 42.24 12.82 41.26 12.89ZM46.80 11.48C46.80 12.53 47.50 13.47 48.82 13.47C49.63 13.47 50.46 12.92 50.90 12.63C51.10 13.15 51.32 13.47 51.81 13.47C52.33 13.47 52.93 13.31 53.47 13.05L53.38 12.71C53.19 12.75 52.88 12.78 52.67 12.73C52.42 12.67 52.18 12.40 52.18 11.52L52.18 8.13C52.18 7.32 52.00 6.27 49.88 6.27C48.30 6.27 47.05 7.10 47.05 7.87C47.05 8.32 47.57 8.53 47.84 8.53C48.13 8.53 48.22 8.37 48.29 8.13C48.59 7.10 49.17 6.76 49.73 6.76C50.27 6.76 50.92 7.04 50.92 8.16L50.92 8.75C50.57 9.11 49.21 9.46 48.10 9.81C47.10 10.12 46.80 10.82 46.80 11.48ZM48.22 11.28C48.22 10.63 48.52 10.29 49.31 10.00C49.87 9.79 50.61 9.52 50.92 9.32L50.92 11.30C50.92 12.43 50.05 12.73 49.50 12.73C48.64 12.73 48.22 12.11 48.22 11.28Z"></path></g><!----><!----></svg>